<svg xmlns="http://www.w3.org/2000/svg" version="1.1" xmlns:xlink="http://www.w3.org/1999/xlink" xmlns:svgjs="http://svgjs.dev/svgjs" width="32" height="40"><svg width="32" height="40" viewBox="0 0 32 40" fill="none" xmlns="http://www.w3.org/2000/svg">
<circle cx="28.5" cy="8.5" r="3.5" fill="#6A70FF"></circle>
<circle cx="20.5" cy="16.5" r="3.5" fill="#6A70FF"></circle>
<circle cx="12.5" cy="24.5" r="3.5" fill="#6ECB9E"></circle>
<circle cx="20.5" cy="16.5" r="3.5" fill="#6A8BFF"></circle>
<circle cx="12.5" cy="24.5" r="3.5" fill="#6EBACB"></circle>
<circle cx="3.5" cy="32.5" r="3.5" fill="#6ECB9E"></circle>
<path fill-rule="evenodd" clip-rule="evenodd" d="M9.32652 32.5298C9.31466 34.7827 7.94817 36.7152 6 37.5541C8.34804 38.864 11.6119 40.0002 15.8266 40.0002C20.5931 40.0002 24.1434 38.5471 26.5284 37.0328C27.7119 36.2814 28.5995 35.5212 29.2067 34.9288C29.5108 34.6321 29.7462 34.3759 29.9151 34.1814C29.9996 34.084 30.0676 34.0019 30.1194 33.9375C30.1453 33.9054 30.1671 33.8776 30.185 33.8546L30.2088 33.8237L30.2184 33.811L30.2227 33.8054L30.2247 33.8027C30.2257 33.8014 30.2266 33.8002 27.8266 32.0002L30.2266 33.8002C31.2207 32.4747 30.9521 30.5943 29.6266 29.6002C28.3096 28.6124 26.4448 28.8713 25.4458 30.1748L25.4456 30.1751C25.4384 30.184 25.4178 30.2093 25.3836 30.2487C25.3152 30.3276 25.1932 30.462 25.0168 30.6341C24.6631 30.9792 24.0975 31.469 23.3123 31.9675C21.7598 32.9533 19.3101 34.0002 15.8266 34.0002C13.0065 34.0002 10.864 33.3141 9.32652 32.5298Z" fill="#6ECB9E"></path>
<path fill-rule="evenodd" clip-rule="evenodd" d="M1.70018 10.4C3.01716 11.3877 4.88197 11.1289 5.88094 9.82537L5.8812 9.82505C5.88838 9.81613 5.90899 9.79086 5.94315 9.75149C6.01162 9.6726 6.13358 9.53821 6.30999 9.3661C6.66372 9.021 7.22926 8.53117 8.01445 8.03264C9.56702 7.04688 12.0167 6 15.5002 6C18.9837 6 21.4333 7.04688 22.9859 8.03264C22.9967 8.03947 23.0074 8.0463 23.0181 8.05314C23.196 5.84016 24.6839 3.9969 26.7057 3.2994C26.5442 3.1889 26.3763 3.07804 26.202 2.96736C23.817 1.45312 20.2667 0 15.5002 0C10.7337 0 7.18333 1.45312 4.7984 2.96736C3.61484 3.71883 2.72726 4.479 2.12005 5.0714C1.81599 5.36804 1.58053 5.62428 1.41169 5.81882C1.32721 5.91617 1.25919 5.99832 1.20741 6.06265C1.18151 6.09482 1.15965 6.12256 1.14179 6.14556L1.118 6.17645L1.10834 6.18916L1.10407 6.19481L1.10208 6.19747C1.10112 6.19874 1.10018 6.2 3.50018 8L1.10018 6.2C0.106064 7.52548 0.374693 9.40589 1.70018 10.4Z" fill="#6A70FF"></path>
</svg><style>@media (prefers-color-scheme: light) { :root { filter: none; } }
@media (prefers-color-scheme: dark) { :root { filter: none; } }
</style></svg>