<svg width="240" height="56" viewBox="0 0 240 56" fill="none" xmlns="http://www.w3.org/2000/svg">
<path d="M5.5 16C5.5 16 9.25 11 17.5 11C25.75 11 29.5 16 29.5 16" stroke="#6A70FF" stroke-width="6" stroke-linecap="round"/>
<path d="M29.5 40C29.5 40 25.75 45 17.5 45C9.25 45 5.5 40 5.5 40" stroke="#6ECB9E" stroke-width="6" stroke-linecap="round"/>
<circle cx="30.5" cy="16.5" r="4.5" fill="#6A70FF" stroke="white" stroke-width="2"/>
<circle cx="22.5" cy="24.5" r="3.5" fill="#6A70FF"/>
<circle cx="14.5" cy="32.5" r="3.5" fill="#6ECB9E"/>
<circle cx="22.5" cy="24.5" r="3.5" fill="#6A8BFF"/>
<circle cx="14.5" cy="32.5" r="3.5" fill="#6EBACB"/>
<circle cx="5.5" cy="40.5" r="4.5" fill="#6ECB9E" stroke="white" stroke-width="2"/>
<path d="M81.894 19.85H68.832V44H61.818V19.85H48.714V13.844H81.894V19.85ZM92.7786 21.866H98.7426L103.615 35.936L108.697 21.866H115.627L106.849 44H100.675L95.5926 29.972L90.5106 44H84.3366L75.5586 21.866H82.7826L87.9066 35.936L92.7786 21.866ZM117.487 19.598V13.844H124.333V19.598H117.487ZM124.249 21.866V44H117.529V21.866H124.249ZM128.398 44V21.866H135.118V24.554C136.84 22.748 139.612 21.404 143.182 21.404C148.936 21.404 152.842 25.268 152.842 31.4V44H146.122V33.374C146.122 29.636 144.316 27.368 140.872 27.368C137.218 27.368 135.118 29.594 135.118 33.416V44H128.398ZM175.638 41.48C174.126 43.118 171.312 44.462 167.616 44.462C160.056 44.462 155.646 39.254 155.646 32.954C155.646 26.612 160.056 21.404 167.616 21.404C171.312 21.404 174.126 22.79 175.638 24.386V13.844H182.358V44H175.638V41.48ZM175.848 32.828C175.848 29.342 172.866 26.822 169.002 26.822C165.306 26.822 162.198 29.006 162.198 32.954C162.198 36.902 165.306 39.044 169.002 39.044C172.866 39.044 175.848 36.566 175.848 33.08V32.828ZM198.488 21.404C205.922 21.404 211.718 25.982 211.718 32.954C211.718 39.926 205.922 44.462 198.488 44.462C191.054 44.462 185.3 39.926 185.3 32.954C185.3 25.982 191.054 21.404 198.488 21.404ZM198.488 39.002C202.184 39.002 205.166 36.818 205.166 32.954C205.166 29.132 202.184 26.906 198.488 26.906C194.834 26.906 191.852 29.132 191.852 32.954C191.852 36.818 194.834 39.002 198.488 39.002ZM213.683 32.954C213.683 26.108 219.269 21.404 226.997 21.404C233.591 21.404 237.875 25.058 239.051 28.712L233.255 31.19C232.499 28.88 230.231 26.906 226.955 26.906C223.091 26.906 220.235 29.174 220.235 32.954C220.235 36.692 223.091 39.002 226.955 39.002C230.231 39.002 232.499 37.028 233.255 34.676L239.051 37.238C237.833 40.85 233.591 44.462 226.997 44.462C219.269 44.462 213.683 39.758 213.683 32.954Z" fill="#3B28CC"/>
</svg>
